HIERARCHY
ROOT SpineBase
{
  OFFSET 0.000000 0.000000 0.000000
  CHANNELS 6 Xposition Yposition Zposition Zrotation Xrotation Yrotation
  JOINT SpineMid
  {
    OFFSET 0.000000 26.259936 0.000000
    CHANNELS 3 Zrotation Xrotation Yrotation
    JOINT SpineShoulder
    {
      OFFSET 0.151427 19.803992 -0.820384
      CHANNELS 3 Zrotation Xrotation Yrotation
      JOINT Neck
      {
        OFFSET 0.091275 6.654066 -0.603242
        CHANNELS 3 Zrotation Xrotation Yrotation
        JOINT Head
        {
          OFFSET 4.788010 13.536023 -1.636564
          CHANNELS 3 Zrotation Xrotation Yrotation
          End Site
          {
            OFFSET 0 0 0
          }
        }
      }
      JOINT ShoulderLeft
      {
        OFFSET -9.707295 0.225683 -10.255911
        CHANNELS 3 Zrotation Xrotation Yrotation
        JOINT ElbowLeft
        {
          OFFSET -3.573490 -16.026063 -7.514697
          CHANNELS 3 Zrotation Xrotation Yrotation
          JOINT WristLeft
          {
            OFFSET 18.377974 -3.047665 -6.470890
            CHANNELS 3 Zrotation Xrotation Yrotation
            JOINT HandLeft
            {
              OFFSET 5.588531 2.385035 3.775218
              CHANNELS 3 Zrotation Xrotation Yrotation
              JOINT HandTipLeft
              {
                OFFSET 0.120753 0.382411 -0.389883
                CHANNELS 3 Zrotation Xrotation Yrotation
                End Site
                {
                  OFFSET 0 0 0
                }
              }
              JOINT ThumbLeft
              {
                OFFSET -3.371080 -1.316223 0.377715
                CHANNELS 3 Zrotation Xrotation Yrotation
                End Site
                {
                  OFFSET 0 0 0
                }
              }
            }
          }
        }
      }
      JOINT ShoulderRight
      {
        OFFSET 13.532257 -3.087927 9.138885
        CHANNELS 3 Zrotation Xrotation Yrotation
        JOINT ElbowRight
        {
          OFFSET 7.486817 -22.956992 -1.318932
          CHANNELS 3 Zrotation Xrotation Yrotation
          JOINT WristRight
          {
            OFFSET 5.012617 -13.846533 -12.989551
            CHANNELS 3 Zrotation Xrotation Yrotation
            JOINT HandRight
            {
              OFFSET 3.030209 -0.387895 -5.092551
              CHANNELS 3 Zrotation Xrotation Yrotation
              JOINT HandTipRight
              {
                OFFSET 4.718273 -2.913199 -5.856439
                CHANNELS 3 Zrotation Xrotation Yrotation
                End Site
                {
                  OFFSET 0 0 0
                }
              }
              JOINT ThumbRight
              {
                OFFSET 1.689438 5.072753 -1.313772
                CHANNELS 3 Zrotation Xrotation Yrotation
                End Site
                {
                  OFFSET 0 0 0
                }
              }
            }
          }
        }
      }
    }
  }
  JOINT HipLeft
  {
    OFFSET -5.364427 1.867423 -7.241063
    CHANNELS 3 Zrotation Xrotation Yrotation
    JOINT KneeLeft
    {
      OFFSET 14.321270 1.648753 -27.856056
      CHANNELS 3 Zrotation Xrotation Yrotation
      JOINT AnkleLeft
      {
        OFFSET 4.657419 -30.775622 3.824758
        CHANNELS 3 Zrotation Xrotation Yrotation
        JOINT FootLeft
        {
          OFFSET 5.628399 -5.749375 -3.796713
          CHANNELS 3 Zrotation Xrotation Yrotation
          End Site
          {
            OFFSET 0 0 0
          }
        }
      }
    }
  }
  JOINT HipRight
  {
    OFFSET 6.258467 0.782749 1.321835
    CHANNELS 3 Zrotation Xrotation Yrotation
    JOINT KneeRight
    {
      OFFSET 26.891716 2.823648 -13.058414
      CHANNELS 3 Zrotation Xrotation Yrotation
      JOINT AnkleRight
      {
        OFFSET -7.119253 -31.602975 -10.114404
        CHANNELS 3 Zrotation Xrotation Yrotation
        JOINT FootRight
        {
          OFFSET 3.091860 -6.475357 -6.629892
          CHANNELS 3 Zrotation Xrotation Yrotation
          End Site
          {
            OFFSET 0 0 0
          }
        }
      }
    }
  }
}
MOTION
Frames: 9
Frame Time: 0.033333
-44.178013 34.284408 349.085768 12.315537 -0.294122 -41.703060 -0.197458 0.348498 42.208305 -0.109349 0.331148 0.563289 -1.977701 -2.776116 1.303347 0.000000 0.000000 0.000000 17.666319 1.903311 -17.230891 -18.892869 -1.801029 21.497376 -21.484873 -17.932389 36.461037 20.880291 49.708012 -101.942803 0.000000 0.000000 0.000000 0.000000 0.000000 0.000000 17.909070 13.607508 -1.755309 -27.846184 30.465263 6.685139 -17.385256 -46.290651 26.234091 -17.139311 11.086816 11.723497 0.000000 0.000000 0.000000 0.000000 0.000000 0.000000 -10.346885 -3.303239 61.699023 -0.189949 -4.809937 -20.161076 -29.062458 7.620289 29.975957 0.000000 0.000000 0.000000 -10.278084 -15.616531 55.103063 1.973480 0.151008 -11.988849 23.799842 31.126190 -11.325892 0.000000 0.000000 0.000000
-44.187029 34.293108 349.060310 12.311568 -0.305020 -41.724740 -0.198813 0.329521 42.232048 -0.117700 0.317390 0.563552 -1.868672 -2.711751 1.302830 0.000000 0.000000 0.000000 15.800070 1.863267 -16.135814 -18.629665 -1.947907 20.807073 -16.743287 -19.729630 40.427558 16.088546 51.286344 -102.043217 0.000000 0.000000 0.000000 0.000000 0.000000 0.000000 17.903245 13.717964 -1.759403 -27.837450 30.028957 6.580765 -15.099890 -43.691245 22.262997 -19.888523 7.623684 14.732391 0.000000 0.000000 0.000000 0.000000 0.000000 0.000000 -10.320742 -3.361663 61.711558 -0.185573 -4.581679 -20.146158 -29.510885 10.254028 33.720647 0.000000 0.000000 0.000000 -10.317826 -15.728981 55.081534 1.923501 0.271556 -11.896341 23.990565 31.062925 -11.350858 0.000000 0.000000 0.000000
-44.200225 34.293080 349.018058 12.285555 -0.291145 -41.798253 -0.231083 0.298637 42.301370 -0.165387 0.324334 0.555089 -1.586588 -2.789489 1.366630 0.000000 0.000000 0.000000 14.221898 2.097322 -15.266800 -18.352509 -2.428316 20.310794 -12.419149 -20.487711 41.879580 12.288368 54.168710 -102.229209 0.000000 0.000000 0.000000 0.000000 0.000000 0.000000 17.934991 13.350352 -1.745316 -29.300728 30.312066 8.002134 -14.233783 -43.729534 18.734935 -21.623549 5.573028 17.363539 0.000000 0.000000 0.000000 0.000000 0.000000 0.000000 -10.276513 -3.394151 61.745480 -0.337499 -4.440010 -20.137605 -24.956152 12.770862 31.394401 0.000000 0.000000 0.000000 -10.304438 -15.804115 55.061611 1.824362 0.377594 -11.749799 24.190883 30.988915 -11.379534 0.000000 0.000000 0.000000
-44.219855 34.287416 348.970877 12.235244 -0.262466 -41.857559 -0.275831 0.273416 42.352132 -0.244330 0.354778 0.539446 -1.108632 -3.187954 1.586952 0.000000 0.000000 0.000000 13.694101 2.560092 -15.040103 -18.054295 -2.859059 20.699444 -12.935058 -19.407377 38.903835 9.555859 55.008916 -100.798599 0.000000 0.000000 0.000000 0.000000 0.000000 0.000000 18.327441 12.870050 -1.755530 -29.606272 30.967338 8.286674 -14.494838 -44.196711 15.834945 -21.638520 5.013013 20.542389 0.000000 0.000000 0.000000 0.000000 0.000000 0.000000 -10.225538 -3.374404 61.733746 -0.559702 -4.321680 -20.106351 -19.562222 18.171690 31.089739 0.000000 0.000000 0.000000 -10.259332 -15.829001 54.999512 1.758922 0.458026 -11.600519 24.323842 30.905019 -11.402057 0.000000 0.000000 0.000000
-44.241163 34.274238 348.922143 12.171168 -0.227672 -41.912235 -0.327561 0.269553 42.395077 -0.319505 0.398699 0.522159 -0.637827 -3.643895 1.821485 0.000000 0.000000 0.000000 13.823070 2.683722 -15.046613 -18.240897 -3.229797 20.869324 -12.156018 -19.390655 38.488468 6.564174 56.563500 -100.356356 0.000000 0.000000 0.000000 0.000000 0.000000 0.000000 18.221569 12.328331 -1.672021 -30.132844 31.900221 9.283218 -15.996968 -46.126770 14.951120 -20.073069 6.804862 21.306649 0.000000 0.000000 0.000000 0.000000 0.000000 0.000000 -10.131355 -3.414159 61.705623 -0.764638 -4.333666 -20.079621 -10.529907 25.387967 28.201194 0.000000 0.000000 0.000000 -10.187457 -15.788233 54.911025 1.654914 0.499377 -11.430150 24.443653 30.831004 -11.433272 0.000000 0.000000 0.000000
-44.259179 34.255874 348.884672 12.112536 -0.206578 -41.959607 -0.319024 0.268829 42.438609 -0.354002 0.406352 0.515633 -0.449623 -3.938904 1.975390 0.000000 0.000000 0.000000 13.779343 2.531339 -14.906198 -18.609105 -3.497501 20.308416 -7.330061 -20.508493 39.777122 -1.414032 58.598162 -94.775868 0.000000 0.000000 0.000000 0.000000 0.000000 0.000000 17.652617 11.523250 -1.602837 -30.793828 33.516537 10.971291 -18.596663 -49.080325 15.459602 -16.555486 9.316736 14.204640 0.000000 0.000000 0.000000 0.000000 0.000000 0.000000 -10.067712 -3.407603 61.697335 -0.889449 -4.461957 -20.061590 -3.827423 28.375153 24.079745 0.000000 0.000000 0.000000 -10.110014 -15.686335 54.846813 1.523743 0.498840 -11.292699 24.518182 30.783484 -11.450871 0.000000 0.000000 0.000000
-44.271297 34.243691 348.852553 12.060108 -0.191442 -42.028507 -0.308842 0.256116 42.505441 -0.387988 0.416658 0.508971 -0.370912 -4.069604 2.039351 0.000000 0.000000 0.000000 14.111770 2.254112 -14.925181 -18.725597 -3.281104 20.058244 -5.472176 -20.807597 39.455930 2.169367 61.578910 -98.390254 0.000000 0.000000 0.000000 0.000000 0.000000 0.000000 16.600150 11.307466 -1.441147 -29.952014 33.773875 11.346006 -17.839680 -48.460601 18.633259 -14.558065 10.083989 7.183615 0.000000 0.000000 0.000000 0.000000 0.000000 0.000000 -10.054786 -3.307396 61.748576 -0.982578 -4.650432 -20.061077 -3.405235 26.695817 22.357247 0.000000 0.000000 0.000000 -10.013651 -15.536991 54.846633 1.359156 0.472670 -11.197886 24.563697 30.746504 -11.459826 0.000000 0.000000 0.000000
-44.275553 34.232301 348.835818 12.003912 -0.166705 -42.075236 -0.353373 0.247564 42.542978 -0.416980 0.438194 0.499098 -0.129010 -4.339767 2.171866 0.000000 0.000000 0.000000 14.883234 1.606223 -15.014967 -18.920606 -2.518861 20.366014 -6.373648 -20.791304 38.786440 5.905473 61.179201 -100.163727 0.000000 0.000000 0.000000 0.000000 0.000000 0.000000 15.284651 11.242756 -1.198306 -26.709729 33.409286 9.672520 -17.464799 -47.104925 24.170946 -9.256683 12.819954 1.372104 0.000000 0.000000 0.000000 0.000000 0.000000 0.000000 -10.007102 -3.268243 61.748944 -1.105470 -4.900425 -20.055782 -3.919903 27.750704 23.495144 0.000000 0.000000 0.000000 -9.925184 -15.441114 54.850330 1.245028 0.439167 -11.131445 24.595562 30.748830 -11.464815 0.000000 0.000000 0.000000
-44.274027 34.221374 348.835137 11.958880 -0.156266 -42.073939 -0.422527 0.241524 42.531893 -0.433851 0.458572 0.490161 0.045385 -4.656882 2.314870 0.000000 0.000000 0.000000 16.247280 0.875592 -15.392873 -19.095339 -1.376523 21.252537 -7.708501 -21.507026 39.083820 7.508467 56.861504 -95.763433 0.000000 0.000000 0.000000 0.000000 0.000000 0.000000 13.740613 11.559003 -0.888791 -22.751295 33.454352 7.676243 -18.875133 -47.496099 25.527703 -3.265514 17.263216 4.040637 0.000000 0.000000 0.000000 0.000000 0.000000 0.000000 -9.939105 -3.308876 61.670914 -1.233392 -5.091669 -20.033268 -4.191001 28.337112 24.092776 0.000000 0.000000 0.000000 -9.859596 -15.324543 54.837499 1.138753 0.369739 -11.099011 24.597066 30.787280 -11.469462 0.000000 0.000000 0.000000
